<svg width="55" height="24" viewBox="0 0 55 24" fill="none" xmlns="http://www.w3.org/2000/svg">
<path d="M4.14645 11.6464C3.95118 11.8417 3.95118 12.1583 4.14645 12.3536L7.32843 15.5355C7.52369 15.7308 7.84027 15.7308 8.03553 15.5355C8.2308 15.3403 8.2308 15.0237 8.03553 14.8284L5.20711 12L8.03553 9.17157C8.2308 8.97631 8.2308 8.65973 8.03553 8.46447C7.84027 8.2692 7.52369 8.2692 7.32843 8.46447L4.14645 11.6464ZM12.5 11.5L4.5 11.5L4.5 12.5L12.5 12.5L12.5 11.5Z" fill="#B1B1B1"/>
<path d="M23.645 16.845C24.06 16.845 24.4175 16.7975 24.7175 16.7025C25.0175 16.6075 25.2625 16.475 25.4525 16.305C25.6475 16.13 25.79 15.925 25.88 15.69C25.97 15.45 26.015 15.1875 26.015 14.9025C26.015 14.3475 25.8175 13.91 25.4225 13.59C25.0275 13.265 24.435 13.1025 23.645 13.1025H21.32V16.845H23.645ZM21.32 8.4V12.0675H23.24C23.65 12.0675 24.005 12.0225 24.305 11.9325C24.61 11.8425 24.86 11.7175 25.055 11.5575C25.255 11.3975 25.4025 11.205 25.4975 10.98C25.5925 10.75 25.64 10.5 25.64 10.23C25.64 9.595 25.45 9.1325 25.07 8.8425C24.69 8.5475 24.1 8.4 23.3 8.4H21.32ZM23.3 7.2525C23.96 7.2525 24.5275 7.3175 25.0025 7.4475C25.4825 7.5775 25.875 7.7625 26.18 8.0025C26.49 8.2425 26.7175 8.5375 26.8625 8.8875C27.0075 9.2325 27.08 9.6225 27.08 10.0575C27.08 10.3225 27.0375 10.5775 26.9525 10.8225C26.8725 11.0625 26.75 11.2875 26.585 11.4975C26.42 11.7075 26.21 11.8975 25.955 12.0675C25.705 12.2325 25.41 12.3675 25.07 12.4725C25.86 12.6225 26.4525 12.905 26.8475 13.32C27.2475 13.73 27.4475 14.27 27.4475 14.94C27.4475 15.395 27.3625 15.81 27.1925 16.185C27.0275 16.56 26.7825 16.8825 26.4575 17.1525C26.1375 17.4225 25.7425 17.6325 25.2725 17.7825C24.8025 17.9275 24.2675 18 23.6675 18H19.8725V7.2525H23.3ZM33.2551 14.58C32.6401 14.6 32.1151 14.65 31.6801 14.73C31.2501 14.805 30.8976 14.905 30.6226 15.03C30.3526 15.155 30.1551 15.3025 30.0301 15.4725C29.9101 15.6425 29.8501 15.8325 29.8501 16.0425C29.8501 16.2425 29.8826 16.415 29.9476 16.56C30.0126 16.705 30.1001 16.825 30.2101 16.92C30.3251 17.01 30.4576 17.0775 30.6076 17.1225C30.7626 17.1625 30.9276 17.1825 31.1026 17.1825C31.3376 17.1825 31.5526 17.16 31.7476 17.115C31.9426 17.065 32.1251 16.995 32.2951 16.905C32.4701 16.815 32.6351 16.7075 32.7901 16.5825C32.9501 16.4575 33.1051 16.315 33.2551 16.155V14.58ZM28.9426 11.475C29.3626 11.07 29.8151 10.7675 30.3001 10.5675C30.7851 10.3675 31.3226 10.2675 31.9126 10.2675C32.3376 10.2675 32.7151 10.3375 33.0451 10.4775C33.3751 10.6175 33.6526 10.8125 33.8776 11.0625C34.1026 11.3125 34.2726 11.615 34.3876 11.97C34.5026 12.325 34.5601 12.715 34.5601 13.14V18H33.9676C33.8376 18 33.7376 17.98 33.6676 17.94C33.5976 17.895 33.5426 17.81 33.5026 17.685L33.3526 16.965C33.1526 17.15 32.9576 17.315 32.7676 17.46C32.5776 17.6 32.3776 17.72 32.1676 17.82C31.9576 17.915 31.7326 17.9875 31.4926 18.0375C31.2576 18.0925 30.9951 18.12 30.7051 18.12C30.4101 18.12 30.1326 18.08 29.8726 18C29.6126 17.915 29.3851 17.79 29.1901 17.625C29.0001 17.46 28.8476 17.2525 28.7326 17.0025C28.6226 16.7475 28.5676 16.4475 28.5676 16.1025C28.5676 15.8025 28.6501 15.515 28.8151 15.24C28.9801 14.96 29.2476 14.7125 29.6176 14.4975C29.9876 14.2825 30.4701 14.1075 31.0651 13.9725C31.6601 13.8325 32.3901 13.7525 33.2551 13.7325V13.14C33.2551 12.55 33.1276 12.105 32.8726 11.805C32.6176 11.5 32.2451 11.3475 31.7551 11.3475C31.4251 11.3475 31.1476 11.39 30.9226 11.475C30.7026 11.555 30.5101 11.6475 30.3451 11.7525C30.1851 11.8525 30.0451 11.945 29.9251 12.03C29.8101 12.11 29.6951 12.15 29.5801 12.15C29.4901 12.15 29.4126 12.1275 29.3476 12.0825C29.2826 12.0325 29.2276 11.9725 29.1826 11.9025L28.9426 11.475ZM41.8811 11.7525C41.8411 11.8075 41.8011 11.85 41.7611 11.88C41.7211 11.91 41.6661 11.925 41.5961 11.925C41.5211 11.925 41.4386 11.895 41.3486 11.835C41.2586 11.77 41.1461 11.7 41.0111 11.625C40.8811 11.55 40.7186 11.4825 40.5236 11.4225C40.3336 11.3575 40.0986 11.325 39.8186 11.325C39.4436 11.325 39.1136 11.3925 38.8286 11.5275C38.5436 11.6575 38.3036 11.8475 38.1086 12.0975C37.9186 12.3475 37.7736 12.65 37.6736 13.005C37.5786 13.36 37.5311 13.7575 37.5311 14.1975C37.5311 14.6575 37.5836 15.0675 37.6886 15.4275C37.7936 15.7825 37.9411 16.0825 38.1311 16.3275C38.3261 16.5675 38.5586 16.7525 38.8286 16.8825C39.1036 17.0075 39.4111 17.07 39.7511 17.07C40.0761 17.07 40.3436 17.0325 40.5536 16.9575C40.7636 16.8775 40.9361 16.79 41.0711 16.695C41.2111 16.6 41.3261 16.515 41.4161 16.44C41.5111 16.36 41.6036 16.32 41.6936 16.32C41.8036 16.32 41.8886 16.3625 41.9486 16.4475L42.3236 16.935C42.1586 17.14 41.9711 17.315 41.7611 17.46C41.5511 17.605 41.3236 17.7275 41.0786 17.8275C40.8386 17.9225 40.5861 17.9925 40.3211 18.0375C40.0561 18.0825 39.7861 18.105 39.5111 18.105C39.0361 18.105 38.5936 18.0175 38.1836 17.8425C37.7786 17.6675 37.4261 17.415 37.1261 17.085C36.8261 16.75 36.5911 16.34 36.4211 15.855C36.2511 15.37 36.1661 14.8175 36.1661 14.1975C36.1661 13.6325 36.2436 13.11 36.3986 12.63C36.5586 12.15 36.7886 11.7375 37.0886 11.3925C37.3936 11.0425 37.7661 10.77 38.2061 10.575C38.6511 10.38 39.1611 10.2825 39.7361 10.2825C40.2711 10.2825 40.7411 10.37 41.1461 10.545C41.5561 10.715 41.9186 10.9575 42.2336 11.2725L41.8811 11.7525ZM45.0992 6.9525V13.455H45.4442C45.5442 13.455 45.6267 13.4425 45.6917 13.4175C45.7617 13.3875 45.8342 13.33 45.9092 13.245L48.3092 10.6725C48.3792 10.5875 48.4517 10.5225 48.5267 10.4775C48.6067 10.4275 48.7117 10.4025 48.8417 10.4025H50.0492L47.2517 13.38C47.1167 13.55 46.9717 13.6825 46.8167 13.7775C46.9067 13.8375 46.9867 13.9075 47.0567 13.9875C47.1317 14.0625 47.2017 14.15 47.2667 14.25L50.2367 18H49.0442C48.9292 18 48.8292 17.9825 48.7442 17.9475C48.6642 17.9075 48.5942 17.8375 48.5342 17.7375L46.0367 14.625C45.9617 14.52 45.8867 14.4525 45.8117 14.4225C45.7417 14.3875 45.6317 14.37 45.4817 14.37H45.0992V18H43.7567V6.9525H45.0992Z" fill="#B1B1B1"/>
</svg>
