<svg width="14" height="16" viewBox="0 0 14 16" fill="none" xmlns="http://www.w3.org/2000/svg">
<path d="M3.28125 0.875C3.51562 0.875 3.75 1.10938 3.75 1.34375V2.75H9.375V1.34375C9.375 1.10938 9.58008 0.875 9.84375 0.875C10.0781 0.875 10.3125 1.10938 10.3125 1.34375V2.75H11.25C12.2754 2.75 13.125 3.59961 13.125 4.625V14C13.125 15.0547 12.2754 15.875 11.25 15.875H1.875C0.820312 15.875 0 15.0547 0 14V4.625C0 3.59961 0.820312 2.75 1.875 2.75H2.8125V1.34375C2.8125 1.10938 3.01758 0.875 3.28125 0.875ZM12.1875 6.5H9.14062V8.60938H12.1875V6.5ZM12.1875 9.54688H9.14062V11.8906H12.1875V9.54688ZM12.1875 12.8281H9.14062V14.9375H11.25C11.748 14.9375 12.1875 14.5273 12.1875 14V12.8281ZM8.20312 11.8906V9.54688H4.92188V11.8906H8.20312ZM4.92188 14.9375H8.20312V12.8281H4.92188V14.9375ZM3.98438 11.8906V9.54688H0.9375V11.8906H3.98438ZM0.9375 12.8281V14C0.9375 14.5273 1.34766 14.9375 1.875 14.9375H3.98438V12.8281H0.9375ZM0.9375 8.60938H3.98438V6.5H0.9375V8.60938ZM4.92188 8.60938H8.20312V6.5H4.92188V8.60938ZM11.25 3.6875H1.875C1.34766 3.6875 0.9375 4.12695 0.9375 4.625V5.5625H12.1875V4.625C12.1875 4.12695 11.748 3.6875 11.25 3.6875Z" fill="#868390"/>
</svg>
