<svg width="17" height="16" viewBox="0 0 17 16" fill="none" xmlns="http://www.w3.org/2000/svg">
<path d="M8.5 0C4.0625 0 0.5 3.59375 0.5 8C0.5 12.4375 4.0625 16 8.5 16C12.9062 16 16.5 12.4375 16.5 8C16.5 3.59375 12.9062 0 8.5 0ZM8.5 15C4.625 15 1.5 11.875 1.5 8C1.5 4.15625 4.625 1 8.5 1C12.3438 1 15.5 4.15625 15.5 8C15.5 11.875 12.3438 15 8.5 15ZM8 10.75C7.5625 10.75 7.25 11.0938 7.25 11.5C7.25 11.9375 7.5625 12.25 8 12.25C8.40625 12.25 8.75 11.9375 8.75 11.5C8.75 11.0938 8.40625 10.75 8 10.75ZM9.40625 4H7.5625C6.40625 4 5.5 4.9375 5.5 6.09375V6.375C5.5 6.65625 5.71875 6.875 6 6.875C6.25 6.875 6.5 6.65625 6.5 6.375V6.09375C6.5 5.5 6.96875 5 7.5625 5H9.40625C10 5 10.5 5.5 10.5 6.09375C10.5 6.46875 10.2812 6.84375 9.9375 7.03125L8.0625 7.96875C7.71875 8.15625 7.5 8.53125 7.5 8.9375V9.5C7.5 9.78125 7.71875 10 8 10C8.25 10 8.5 9.78125 8.5 9.5V8.9375C8.5 8.90625 8.5 8.875 8.53125 8.84375L10.4062 7.90625C11.0625 7.53125 11.5 6.84375 11.5 6.09375C11.5 4.9375 10.5625 4 9.40625 4Z" fill="#B1B1B1"/>
</svg>
