<svg width="101" height="101" viewBox="0 0 101 101" fill="none" xmlns="http://www.w3.org/2000/svg">
<path d="M71.2031 33.8984L44.25 60.8516L29.6016 46.3984C29.0156 45.8125 28.0391 45.8125 27.4531 46.3984C26.8672 46.9844 26.8672 47.9609 27.4531 48.5469L43.0781 64.1719C43.2734 64.5625 43.6641 64.5625 44.25 64.5625C44.6406 64.5625 45.0312 64.5625 45.2266 64.1719L73.3516 36.0469C73.9375 35.4609 73.9375 34.4844 73.3516 33.8984C72.7656 33.3125 71.7891 33.3125 71.2031 33.8984ZM50.5 0.5C22.7656 0.5 0.5 22.9609 0.5 50.5C0.5 78.2344 22.7656 100.5 50.5 100.5C78.0391 100.5 100.5 78.2344 100.5 50.5C100.5 22.9609 78.0391 0.5 50.5 0.5ZM50.5 97.375C24.5234 97.375 3.625 76.4766 3.625 50.5C3.625 24.7188 24.5234 3.625 50.5 3.625C76.2812 3.625 97.375 24.7188 97.375 50.5C97.375 76.4766 76.2812 97.375 50.5 97.375Z" fill="#7F54EE"/>
</svg>
