<svg width="20" height="20" viewBox="0 0 20 20" fill="none" xmlns="http://www.w3.org/2000/svg">
<path d="M15 2.4375C13.5312 1.53125 11.8438 1 10 1V2.4375H15Z" fill="#ED4C5C"/>
<path d="M10 3.4375H16.75C16.2188 2.90625 15.625 2.40625 15 2H10V3.4375Z" fill="white"/>
<path d="M10 4.4375H17.9062C17.5625 3.90625 17.1875 3.4375 16.7812 3H10V4.4375Z" fill="#ED4C5C"/>
<path d="M10 6.4375H18.6562C18.4375 5.9375 18.1875 5.4375 17.9062 5H10V6.4375Z" fill="white"/>
<path d="M10 7.4375H19.125C19 6.9375 18.8438 6.46875 18.6562 6H10V7.4375Z" fill="#ED4C5C"/>
<path d="M10 9.4375H19.3438C19.3125 8.9375 19.2187 8.46875 19.125 8H10V9.4375Z" fill="white"/>
<path d="M19.7188 9H10.375V9.71875H1C1 9.96875 1 10.1875 1.03125 10.4375H19.7188C19.75 10.1875 19.75 9.96875 19.75 9.71875C19.75 9.46875 19.75 9.21875 19.7188 9Z" fill="#ED4C5C"/>
<path d="M1.21875 12.4375H19.4687C19.5937 11.9688 19.6562 11.5 19.6875 11H1C1.03125 11.4688 1.125 11.9688 1.21875 12.4375Z" fill="white"/>
<path d="M1.46875 13.4375H18.7812C18.9688 12.9687 19.125 12.5 19.25 12H1C1.125 12.5 1.28125 12.9687 1.46875 13.4375Z" fill="#ED4C5C"/>
<path d="M1.75 15.4375H17.5625C17.8438 14.9687 18.0938 14.5 18.3125 14H1C1.21875 14.5 1.46875 14.9687 1.75 15.4375Z" fill="white"/>
<path d="M3.125 16.4375H16.6875C17.0938 16 17.5 15.5 17.8125 15H2C2.3125 15.5312 2.71875 16 3.125 16.4375Z" fill="#ED4C5C"/>
<path d="M4.75 17.4375H14.8125C15.4687 17.0312 16.0312 16.5313 16.5625 16H3C3.53125 16.5625 4.125 17.0312 4.75 17.4375Z" fill="white"/>
<path d="M10.0312 19.4688C11.875 19.4688 13.5937 18.9375 15.0625 18H5C6.46875 18.9375 8.1875 19.4688 10.0312 19.4688Z" fill="#ED4C5C"/>
<path d="M5.375 2.4375C4.71875 2.84375 4.125 3.34375 3.59375 3.875C3.15625 4.3125 2.78125 4.8125 2.46875 5.3125C2.1875 5.78125 1.90625 6.25 1.71875 6.75C1.53125 7.21875 1.375 7.6875 1.25 8.1875C1.125 8.65625 1.0625 9.125 1.03125 9.625C1 9.875 1 10.125 1 10.375H10.375V1C8.53125 1 6.84375 1.53125 5.375 2.4375Z" fill="#428BC1"/>
<path d="M7.625 1L7.78125 1.46875H8.25L7.875 1.78125L8 2.25L7.625 1.96875L7.25 2.25L7.375 1.78125L7 1.46875H7.46875L7.625 1Z" fill="white"/>
<path d="M8.625 3L8.78125 3.46875H9.25L8.875 3.78125L9 4.25L8.625 3.96875L8.25 4.25L8.375 3.78125L8 3.46875H8.46875L8.625 3Z" fill="white"/>
<path d="M6.625 3L6.78125 3.46875H7.25L6.875 3.78125L7 4.25L6.625 3.96875L6.25 4.25L6.375 3.78125L6 3.46875H6.46875L6.625 3Z" fill="white"/>
<path d="M7.625 5L7.78125 5.46875H8.25L7.875 5.78125L8 6.25L7.625 5.96875L7.25 6.25L7.375 5.78125L7 5.46875H7.46875L7.625 5Z" fill="white"/>
<path d="M5.625 5L5.78125 5.46875H6.25L5.875 5.78125L6 6.25L5.625 5.96875L5.25 6.25L5.375 5.78125L5 5.46875H5.46875L5.625 5Z" fill="white"/>
<path d="M2.625 5L2.78125 5.46875H3.25L2.875 5.78125L3 6.25L2.625 5.96875L2.25 6.25L2.375 5.78125L2 5.46875H2.46875L2.625 5Z" fill="white"/>
<path d="M8.625 7L8.78125 7.46875H9.25L8.875 7.78125L9 8.25L8.625 7.96875L8.25 8.25L8.375 7.78125L8 7.46875H8.46875L8.625 7Z" fill="white"/>
<path d="M6.625 7L6.78125 7.46875H7.25L6.875 7.78125L7 8.25L6.625 7.96875L6.25 8.25L6.375 7.78125L6 7.46875H6.46875L6.625 7Z" fill="white"/>
<path d="M3.625 7L3.78125 7.46875H4.25L3.875 7.78125L4 8.25L3.625 7.96875L3.25 8.25L3.375 7.78125L3 7.46875H3.46875L3.625 7Z" fill="white"/>
<path d="M7.625 8L7.78125 8.46875H8.25L7.875 8.78125L8 9.25L7.625 8.96875L7.25 9.25L7.375 8.78125L7 8.46875H7.46875L7.625 8Z" fill="white"/>
<path d="M5.625 8L5.78125 8.46875H6.25L5.875 8.78125L6 9.25L5.625 8.96875L5.25 9.25L5.375 8.78125L5 8.46875H5.46875L5.625 8Z" fill="white"/>
<path d="M2.625 8L2.78125 8.46875H3.25L2.875 8.78125L3 9.25L2.625 8.96875L2.25 9.25L2.375 8.78125L2 8.46875H2.46875L2.625 8Z" fill="white"/>
<path d="M3.21875 4.25L3.59375 3.96875L3.96875 4.25L3.8125 3.78125L4.1875 3.46875H3.71875L3.59375 3L3.4375 3.46875H3L3.375 3.75L3.21875 4.25Z" fill="white"/>
<path d="M1.125 8.25L1.5 7.96875L1.875 8.25L1.71875 7.78125L2.09375 7.46875H1.65625L1.5 7L1.34375 7.46875H1.03125C1.03125 7.5 1 7.53125 1 7.5625L1.25 7.75L1.125 8.25Z" fill="white"/>
</svg>
