<svg width="209" height="24" viewBox="0 0 209 24" fill="none" xmlns="http://www.w3.org/2000/svg">
<rect width="209" height="24" rx="12" fill="#F6F8FD"/>
<rect width="89" height="24" rx="12" fill="#7F54EE"/>
<path d="M32.7016 13.528C32.9443 12.1653 33.6023 11.484 34.6756 11.484C34.9276 11.484 35.1516 11.5307 35.3476 11.624C35.5529 11.708 35.7816 11.834 36.0336 12.002C36.2576 12.142 36.4396 12.2447 36.5796 12.31C36.7289 12.3753 36.8829 12.408 37.0416 12.408C37.2843 12.408 37.4896 12.3287 37.6576 12.17C37.8349 12.002 37.9423 11.778 37.9796 11.498H38.9316C38.6983 12.8607 38.0356 13.542 36.9436 13.542C36.7009 13.542 36.4863 13.5 36.2996 13.416C36.1129 13.332 35.8843 13.206 35.6136 13.038C35.3896 12.898 35.2076 12.7953 35.0676 12.73C34.9276 12.6553 34.7689 12.618 34.5916 12.618C34.3489 12.618 34.1389 12.702 33.9616 12.87C33.7843 13.0287 33.6769 13.248 33.6396 13.528H32.7016ZM40.1574 15.978C41.3427 15.026 42.2714 14.2467 42.9434 13.64C43.6154 13.024 44.18 12.3847 44.6374 11.722C45.104 11.05 45.3374 10.392 45.3374 9.748C45.3374 9.14133 45.188 8.66533 44.8894 8.32C44.6 7.96533 44.1287 7.788 43.4754 7.788C42.8407 7.788 42.346 7.98867 41.9914 8.39C41.646 8.782 41.4594 9.30933 41.4314 9.972H40.1994C40.2367 8.92667 40.554 8.11933 41.1514 7.55C41.7487 6.98067 42.5187 6.696 43.4614 6.696C44.4227 6.696 45.1834 6.962 45.7434 7.494C46.3127 8.026 46.5974 8.75867 46.5974 9.692C46.5974 10.4667 46.364 11.2227 45.8974 11.96C45.44 12.688 44.9174 13.332 44.3294 13.892C43.7414 14.4427 42.99 15.0867 42.0754 15.824H46.8914V16.888H40.1574V15.978ZM48.2101 15.978C49.3954 15.026 50.3241 14.2467 50.9961 13.64C51.6681 13.024 52.2328 12.3847 52.6901 11.722C53.1568 11.05 53.3901 10.392 53.3901 9.748C53.3901 9.14133 53.2408 8.66533 52.9421 8.32C52.6528 7.96533 52.1814 7.788 51.5281 7.788C50.8934 7.788 50.3988 7.98867 50.0441 8.39C49.6988 8.782 49.5121 9.30933 49.4841 9.972H48.2521C48.2894 8.92667 48.6068 8.11933 49.2041 7.55C49.8014 6.98067 50.5714 6.696 51.5141 6.696C52.4754 6.696 53.2361 6.962 53.7961 7.494C54.3654 8.026 54.6501 8.75867 54.6501 9.692C54.6501 10.4667 54.4168 11.2227 53.9501 11.96C53.4928 12.688 52.9701 13.332 52.3821 13.892C51.7941 14.4427 51.0428 15.0867 50.1281 15.824H54.9441V16.888H48.2101V15.978ZM69.5853 9.188C70.1826 9.188 70.7146 9.314 71.1813 9.566C71.6479 9.80867 72.0166 10.1773 72.2873 10.672C72.5579 11.1667 72.6933 11.7687 72.6933 12.478V17H71.4333V12.66C71.4333 11.8947 71.2419 11.3113 70.8593 10.91C70.4859 10.4993 69.9773 10.294 69.3333 10.294C68.6706 10.294 68.1433 10.5087 67.7513 10.938C67.3593 11.358 67.1633 11.9693 67.1633 12.772V17H65.9033V12.66C65.9033 11.8947 65.7119 11.3113 65.3293 10.91C64.9559 10.4993 64.4473 10.294 63.8033 10.294C63.1406 10.294 62.6133 10.5087 62.2213 10.938C61.8293 11.358 61.6333 11.9693 61.6333 12.772V17H60.3593V9.328H61.6333V10.434C61.8853 10.0327 62.2213 9.72467 62.6413 9.51C63.0706 9.29533 63.5419 9.188 64.0553 9.188C64.6993 9.188 65.2686 9.33267 65.7633 9.622C66.2579 9.91133 66.6266 10.336 66.8693 10.896C67.0839 10.3547 67.4386 9.93467 67.9333 9.636C68.4279 9.33733 68.9786 9.188 69.5853 9.188ZM75.4411 8.082C75.1984 8.082 74.9931 7.998 74.8251 7.83C74.6571 7.662 74.5731 7.45667 74.5731 7.214C74.5731 6.97133 74.6571 6.766 74.8251 6.598C74.9931 6.43 75.1984 6.346 75.4411 6.346C75.6744 6.346 75.8704 6.43 76.0291 6.598C76.1971 6.766 76.2811 6.97133 76.2811 7.214C76.2811 7.45667 76.1971 7.662 76.0291 7.83C75.8704 7.998 75.6744 8.082 75.4411 8.082ZM76.0571 9.328V17H74.7831V9.328H76.0571ZM81.9664 9.188C82.8997 9.188 83.6557 9.47267 84.2344 10.042C84.8131 10.602 85.1024 11.414 85.1024 12.478V17H83.8424V12.66C83.8424 11.8947 83.6511 11.3113 83.2684 10.91C82.8857 10.4993 82.3631 10.294 81.7004 10.294C81.0284 10.294 80.4917 10.504 80.0904 10.924C79.6984 11.344 79.5024 11.9553 79.5024 12.758V17H78.2284V9.328H79.5024V10.42C79.7544 10.028 80.0951 9.72467 80.5244 9.51C80.9631 9.29533 81.4437 9.188 81.9664 9.188ZM87.5895 17.084C87.3468 17.084 87.1415 17 86.9735 16.832C86.8055 16.664 86.7215 16.4587 86.7215 16.216C86.7215 15.9733 86.8055 15.768 86.9735 15.6C87.1415 15.432 87.3468 15.348 87.5895 15.348C87.8228 15.348 88.0188 15.432 88.1775 15.6C88.3455 15.768 88.4295 15.9733 88.4295 16.216C88.4295 16.4587 88.3455 16.664 88.1775 16.832C88.0188 17 87.8228 17.084 87.5895 17.084Z" fill="white"/>
<path d="M95.4093 10.378V14.9C95.4093 15.2733 95.4887 15.5393 95.6473 15.698C95.806 15.8473 96.0813 15.922 96.4733 15.922H97.4113V17H96.2633C95.554 17 95.022 16.8367 94.6673 16.51C94.3127 16.1833 94.1353 15.6467 94.1353 14.9V10.378H93.1413V9.328H94.1353V7.396H95.4093V9.328H97.4113V10.378H95.4093ZM102.301 17.126C101.582 17.126 100.929 16.9627 100.341 16.636C99.7623 16.3093 99.305 15.8473 98.969 15.25C98.6423 14.6433 98.479 13.9433 98.479 13.15C98.479 12.366 98.647 11.6753 98.983 11.078C99.3283 10.4713 99.795 10.0093 100.383 9.692C100.971 9.36533 101.629 9.202 102.357 9.202C103.085 9.202 103.743 9.36533 104.331 9.692C104.919 10.0093 105.381 10.4667 105.717 11.064C106.062 11.6613 106.235 12.3567 106.235 13.15C106.235 13.9433 106.058 14.6433 105.703 15.25C105.358 15.8473 104.886 16.3093 104.289 16.636C103.692 16.9627 103.029 17.126 102.301 17.126ZM102.301 16.006C102.758 16.006 103.188 15.8987 103.589 15.684C103.99 15.4693 104.312 15.1473 104.555 14.718C104.807 14.2887 104.933 13.766 104.933 13.15C104.933 12.534 104.812 12.0113 104.569 11.582C104.326 11.1527 104.009 10.8353 103.617 10.63C103.225 10.4153 102.8 10.308 102.343 10.308C101.876 10.308 101.447 10.4153 101.055 10.63C100.672 10.8353 100.364 11.1527 100.131 11.582C99.8976 12.0113 99.781 12.534 99.781 13.15C99.781 13.7753 99.893 14.3027 100.117 14.732C100.35 15.1613 100.658 15.4833 101.041 15.698C101.424 15.9033 101.844 16.006 102.301 16.006ZM111.166 13.15C111.166 12.3567 111.325 11.666 111.642 11.078C111.96 10.4807 112.398 10.0187 112.958 9.692C113.528 9.36533 114.176 9.202 114.904 9.202C115.847 9.202 116.622 9.43067 117.228 9.888C117.844 10.3453 118.25 10.98 118.446 11.792H117.074C116.944 11.3253 116.687 10.9567 116.304 10.686C115.931 10.4153 115.464 10.28 114.904 10.28C114.176 10.28 113.588 10.532 113.14 11.036C112.692 11.5307 112.468 12.2353 112.468 13.15C112.468 14.074 112.692 14.788 113.14 15.292C113.588 15.796 114.176 16.048 114.904 16.048C115.464 16.048 115.931 15.9173 116.304 15.656C116.678 15.3947 116.934 15.0213 117.074 14.536H118.446C118.241 15.32 117.83 15.95 117.214 16.426C116.598 16.8927 115.828 17.126 114.904 17.126C114.176 17.126 113.528 16.9627 112.958 16.636C112.398 16.3093 111.96 15.8473 111.642 15.25C111.325 14.6527 111.166 13.9527 111.166 13.15ZM123.492 17.126C122.774 17.126 122.12 16.9627 121.532 16.636C120.954 16.3093 120.496 15.8473 120.16 15.25C119.834 14.6433 119.67 13.9433 119.67 13.15C119.67 12.366 119.838 11.6753 120.174 11.078C120.52 10.4713 120.986 10.0093 121.574 9.692C122.162 9.36533 122.82 9.202 123.548 9.202C124.276 9.202 124.934 9.36533 125.522 9.692C126.11 10.0093 126.572 10.4667 126.908 11.064C127.254 11.6613 127.426 12.3567 127.426 13.15C127.426 13.9433 127.249 14.6433 126.894 15.25C126.549 15.8473 126.078 16.3093 125.48 16.636C124.883 16.9627 124.22 17.126 123.492 17.126ZM123.492 16.006C123.95 16.006 124.379 15.8987 124.78 15.684C125.182 15.4693 125.504 15.1473 125.746 14.718C125.998 14.2887 126.124 13.766 126.124 13.15C126.124 12.534 126.003 12.0113 125.76 11.582C125.518 11.1527 125.2 10.8353 124.808 10.63C124.416 10.4153 123.992 10.308 123.534 10.308C123.068 10.308 122.638 10.4153 122.246 10.63C121.864 10.8353 121.556 11.1527 121.322 11.582C121.089 12.0113 120.972 12.534 120.972 13.15C120.972 13.7753 121.084 14.3027 121.308 14.732C121.542 15.1613 121.85 15.4833 122.232 15.698C122.615 15.9033 123.035 16.006 123.492 16.006ZM138.327 9.188C138.925 9.188 139.457 9.314 139.923 9.566C140.39 9.80867 140.759 10.1773 141.029 10.672C141.3 11.1667 141.435 11.7687 141.435 12.478V17H140.175V12.66C140.175 11.8947 139.984 11.3113 139.601 10.91C139.228 10.4993 138.719 10.294 138.075 10.294C137.413 10.294 136.885 10.5087 136.493 10.938C136.101 11.358 135.905 11.9693 135.905 12.772V17H134.645V12.66C134.645 11.8947 134.454 11.3113 134.071 10.91C133.698 10.4993 133.189 10.294 132.545 10.294C131.883 10.294 131.355 10.5087 130.963 10.938C130.571 11.358 130.375 11.9693 130.375 12.772V17H129.101V9.328H130.375V10.434C130.627 10.0327 130.963 9.72467 131.383 9.51C131.813 9.29533 132.284 9.188 132.797 9.188C133.441 9.188 134.011 9.33267 134.505 9.622C135 9.91133 135.369 10.336 135.611 10.896C135.826 10.3547 136.181 9.93467 136.675 9.636C137.17 9.33733 137.721 9.188 138.327 9.188ZM144.799 10.742C145.051 10.3033 145.425 9.93933 145.919 9.65C146.423 9.35133 147.007 9.202 147.669 9.202C148.351 9.202 148.967 9.36533 149.517 9.692C150.077 10.0187 150.516 10.4807 150.833 11.078C151.151 11.666 151.309 12.352 151.309 13.136C151.309 13.9107 151.151 14.6013 150.833 15.208C150.516 15.8147 150.077 16.286 149.517 16.622C148.967 16.958 148.351 17.126 147.669 17.126C147.016 17.126 146.437 16.9813 145.933 16.692C145.439 16.3933 145.061 16.0247 144.799 15.586V20.64H143.525V9.328H144.799V10.742ZM150.007 13.136C150.007 12.5573 149.891 12.0533 149.657 11.624C149.424 11.1947 149.107 10.868 148.705 10.644C148.313 10.42 147.879 10.308 147.403 10.308C146.937 10.308 146.503 10.4247 146.101 10.658C145.709 10.882 145.392 11.2133 145.149 11.652C144.916 12.0813 144.799 12.5807 144.799 13.15C144.799 13.7287 144.916 14.2373 145.149 14.676C145.392 15.1053 145.709 15.4367 146.101 15.67C146.503 15.894 146.937 16.006 147.403 16.006C147.879 16.006 148.313 15.894 148.705 15.67C149.107 15.4367 149.424 15.1053 149.657 14.676C149.891 14.2373 150.007 13.724 150.007 13.136ZM154.26 6.64V17H152.986V6.64H154.26ZM163.432 12.87C163.432 13.1127 163.418 13.3693 163.39 13.64H157.258C157.304 14.396 157.561 14.9887 158.028 15.418C158.504 15.838 159.078 16.048 159.75 16.048C160.3 16.048 160.758 15.922 161.122 15.67C161.495 15.4087 161.756 15.0633 161.906 14.634H163.278C163.072 15.3713 162.662 15.9733 162.046 16.44C161.43 16.8973 160.664 17.126 159.75 17.126C159.022 17.126 158.368 16.9627 157.79 16.636C157.22 16.3093 156.772 15.8473 156.446 15.25C156.119 14.6433 155.956 13.9433 155.956 13.15C155.956 12.3567 156.114 11.6613 156.432 11.064C156.749 10.4667 157.192 10.0093 157.762 9.692C158.34 9.36533 159.003 9.202 159.75 9.202C160.478 9.202 161.122 9.36067 161.682 9.678C162.242 9.99533 162.671 10.434 162.97 10.994C163.278 11.5447 163.432 12.17 163.432 12.87ZM162.116 12.604C162.116 12.1187 162.008 11.7033 161.794 11.358C161.579 11.0033 161.285 10.7373 160.912 10.56C160.548 10.3733 160.142 10.28 159.694 10.28C159.05 10.28 158.499 10.4853 158.042 10.896C157.594 11.3067 157.337 11.876 157.272 12.604H162.116ZM166.667 10.378V14.9C166.667 15.2733 166.746 15.5393 166.905 15.698C167.064 15.8473 167.339 15.922 167.731 15.922H168.669V17H167.521C166.812 17 166.28 16.8367 165.925 16.51C165.57 16.1833 165.393 15.6467 165.393 14.9V10.378H164.399V9.328H165.393V7.396H166.667V9.328H168.669V10.378H166.667ZM177.213 12.87C177.213 13.1127 177.199 13.3693 177.171 13.64H171.039C171.085 14.396 171.342 14.9887 171.809 15.418C172.285 15.838 172.859 16.048 173.531 16.048C174.081 16.048 174.539 15.922 174.903 15.67C175.276 15.4087 175.537 15.0633 175.687 14.634H177.059C176.853 15.3713 176.443 15.9733 175.827 16.44C175.211 16.8973 174.445 17.126 173.531 17.126C172.803 17.126 172.149 16.9627 171.571 16.636C171.001 16.3093 170.553 15.8473 170.227 15.25C169.9 14.6433 169.737 13.9433 169.737 13.15C169.737 12.3567 169.895 11.6613 170.213 11.064C170.53 10.4667 170.973 10.0093 171.543 9.692C172.121 9.36533 172.784 9.202 173.531 9.202C174.259 9.202 174.903 9.36067 175.463 9.678C176.023 9.99533 176.452 10.434 176.751 10.994C177.059 11.5447 177.213 12.17 177.213 12.87ZM175.897 12.604C175.897 12.1187 175.789 11.7033 175.575 11.358C175.36 11.0033 175.066 10.7373 174.693 10.56C174.329 10.3733 173.923 10.28 173.475 10.28C172.831 10.28 172.28 10.4853 171.823 10.896C171.375 11.3067 171.118 11.876 171.053 12.604H175.897Z" fill="#898693"/>
</svg>
