<svg width="21" height="21" viewBox="0 0 21 21" fill="none" xmlns="http://www.w3.org/2000/svg">
<path d="M19.3359 2.45312L18.0469 1.16406C17.6172 0.734375 17.0703 0.5 16.5234 0.5C15.9375 0.5 15.3906 0.734375 14.9609 1.16406L6.52344 9.60156C6.21094 9.875 6.01562 10.2656 5.9375 10.6562L5 14.875C4.92188 15.2266 5.19531 15.5 5.50781 15.5C5.54688 15.5 5.54688 15.5 5.58594 15.5C5.58594 15.5 8.47656 14.9141 9.80469 14.6016C10.1953 14.4844 10.5469 14.2891 10.8203 14.0156L19.2969 5.53906C20.1953 4.67969 20.1953 3.3125 19.3359 2.45312ZM18.0078 4.21094L9.53125 12.6875C9.49219 12.7266 9.45312 12.7656 9.41406 12.7656C8.86719 12.8828 8.04688 13.0781 7.26562 13.2344L7.77344 11.0859C7.77344 11.0078 7.8125 10.9688 7.85156 10.9297L16.2891 2.49219C16.3672 2.41406 16.4453 2.375 16.5234 2.375C16.5625 2.375 16.6406 2.41406 16.7188 2.49219L18.0078 3.78125C18.125 3.89844 18.125 4.09375 18.0078 4.21094ZM16.5625 11.75C16.0156 11.75 15.625 12.1797 15.625 12.6875V17.6875C15.625 18.2344 15.1953 18.625 14.6875 18.625H2.8125C2.26562 18.625 1.875 18.2344 1.875 17.6875V5.8125C1.875 5.30469 2.26562 4.875 2.8125 4.875H8.4375C8.94531 4.875 9.375 4.48438 9.375 3.9375C9.375 3.42969 8.94531 3 8.4375 3H2.77344C1.25 3 0 4.28906 0 5.8125V17.6875C0 19.25 1.25 20.5 2.77344 20.5H14.6094C16.1328 20.5 17.3828 19.25 17.3828 17.6875L17.5 12.6875C17.5 12.1797 17.0703 11.75 16.5625 11.75Z" fill="#B1B1B1"/>
</svg>
