<svg width="18" height="21" viewBox="0 0 18 21" fill="none" xmlns="http://www.w3.org/2000/svg">
<path d="M16.5625 3.625H13.6328L12.3047 1.4375C11.9531 0.851562 11.3672 0.5 10.7031 0.5H6.75781C6.09375 0.5 5.50781 0.851562 5.15625 1.4375L3.82812 3.625H0.898438C0.390625 3.625 0 4.05469 0 4.5625C0 5.03125 0.390625 5.5 0.898438 5.5H1.25L2.07031 18.7422C2.10938 19.7578 2.92969 20.5 3.94531 20.5H13.5156C14.5312 20.5 15.3516 19.7578 15.3906 18.7422L16.25 5.5H16.5625C17.0703 5.5 17.5 5.10938 17.5 4.5625C17.5 4.05469 17.0703 3.625 16.5625 3.625ZM6.75781 2.375H10.7031L11.4453 3.625H6.01562L6.75781 2.375ZM13.5156 18.625H3.94531L3.125 5.5H14.3359L13.5156 18.625Z" fill="#B1B1B1"/>
</svg>
