<svg width="14" height="16" viewBox="0 0 14 16" fill="none" xmlns="http://www.w3.org/2000/svg">
<path d="M11.25 7.4375H10.7812V5.09375C10.7812 2.7793 8.87695 0.875 6.5625 0.875C4.21875 0.875 2.34375 2.7793 2.34375 5.09375V7.4375H1.875C0.820312 7.4375 0 8.25781 0 9.3125V14C0 15.0254 0.820312 15.875 1.875 15.875H11.25C12.2754 15.875 13.125 15.0254 13.125 14V9.3125C13.125 8.28711 12.2754 7.4375 11.25 7.4375ZM7.5 12.125C7.5 12.623 7.06055 13.0625 6.5625 13.0625C6.03516 13.0625 5.625 12.623 5.625 12.125V11.1875C5.625 10.6602 6.03516 10.25 6.5625 10.25C7.06055 10.25 7.5 10.6602 7.5 11.1875V12.125ZM8.90625 7.4375H4.21875V5.09375C4.21875 3.80469 5.24414 2.75 6.5625 2.75C7.85156 2.75 8.90625 3.80469 8.90625 5.09375V7.4375Z" fill="#E2E2E2"/>
</svg>
