<svg width="164" height="52" viewBox="0 0 164 52" fill="none" xmlns="http://www.w3.org/2000/svg">
<path d="M52.0969 8.632V31H49.8569V8.632H52.0969ZM75.6334 31H73.3934L61.0094 12.184V31H58.7694V8.632H61.0094L73.3934 27.416V8.632H75.6334V31ZM88.9309 8.632C91.4055 8.632 93.5282 9.08 95.2989 9.976C97.0695 10.872 98.4242 12.1627 99.3629 13.848C100.302 15.5333 100.771 17.5387 100.771 19.864C100.771 22.168 100.302 24.1627 99.3629 25.848C98.4242 27.512 97.0695 28.792 95.2989 29.688C93.5282 30.5627 91.4055 31 88.9309 31H82.3069V8.632H88.9309ZM88.9309 29.144C92.0455 29.144 94.4135 28.3333 96.0349 26.712C97.6775 25.0693 98.4989 22.7867 98.4989 19.864C98.4989 16.92 97.6775 14.6267 96.0349 12.984C94.4135 11.32 92.0455 10.488 88.9309 10.488H84.5469V29.144H88.9309ZM108.741 8.632V31H106.501V8.632H108.741ZM133.013 15.16C132.373 13.688 131.392 12.536 130.069 11.704C128.768 10.8507 127.232 10.424 125.461 10.424C123.797 10.424 122.304 10.808 120.981 11.576C119.658 12.344 118.613 13.4427 117.845 14.872C117.077 16.28 116.693 17.9227 116.693 19.8C116.693 21.6773 117.077 23.3307 117.845 24.76C118.613 26.1893 119.658 27.288 120.981 28.056C122.304 28.824 123.797 29.208 125.461 29.208C127.018 29.208 128.416 28.8773 129.653 28.216C130.912 27.5333 131.914 26.5733 132.661 25.336C133.429 24.0773 133.866 22.616 133.973 20.952H124.565V19.128H136.341V20.76C136.234 22.7227 135.701 24.504 134.741 26.104C133.781 27.6827 132.49 28.9307 130.869 29.848C129.269 30.7653 127.466 31.224 125.461 31.224C123.392 31.224 121.514 30.744 119.829 29.784C118.144 28.8027 116.81 27.448 115.829 25.72C114.869 23.9707 114.389 21.9973 114.389 19.8C114.389 17.6027 114.869 15.64 115.829 13.912C116.81 12.1627 118.144 10.808 119.829 9.848C121.514 8.86667 123.392 8.376 125.461 8.376C127.85 8.376 129.941 8.97333 131.733 10.168C133.525 11.3627 134.826 13.0267 135.637 15.16H133.013ZM152.092 31.224C150.023 31.224 148.146 30.744 146.46 29.784C144.775 28.8027 143.442 27.448 142.46 25.72C141.5 23.9707 141.02 21.9973 141.02 19.8C141.02 17.6027 141.5 15.64 142.46 13.912C143.442 12.1627 144.775 10.808 146.46 9.848C148.146 8.86667 150.023 8.376 152.092 8.376C154.183 8.376 156.071 8.86667 157.756 9.848C159.442 10.808 160.764 12.1627 161.724 13.912C162.684 15.64 163.164 17.6027 163.164 19.8C163.164 21.9973 162.684 23.9707 161.724 25.72C160.764 27.448 159.442 28.8027 157.756 29.784C156.071 30.744 154.183 31.224 152.092 31.224ZM152.092 29.272C153.756 29.272 155.25 28.888 156.572 28.12C157.895 27.352 158.94 26.2533 159.708 24.824C160.476 23.3733 160.86 21.6987 160.86 19.8C160.86 17.9013 160.476 16.2373 159.708 14.808C158.94 13.3787 157.895 12.28 156.572 11.512C155.25 10.744 153.756 10.36 152.092 10.36C150.428 10.36 148.935 10.744 147.612 11.512C146.29 12.28 145.244 13.3787 144.476 14.808C143.708 16.2373 143.324 17.9013 143.324 19.8C143.324 21.6987 143.708 23.3733 144.476 24.824C145.244 26.2533 146.29 27.352 147.612 28.12C148.935 28.888 150.428 29.272 152.092 29.272Z" fill="#1A1626"/>
<path d="M79.6043 37.636V46H78.5123V42.208H74.2523V46H73.1603V37.636H74.2523V41.308H78.5123V37.636H79.6043ZM87.9609 38.524V41.32H91.0089V42.22H87.9609V45.1H91.3689V46H86.8689V37.624H91.3689V38.524H87.9609ZM103.365 44.14H99.7173L99.0453 46H97.8933L100.917 37.684H102.177L105.189 46H104.037L103.365 44.14ZM103.053 43.252L101.541 39.028L100.029 43.252H103.053ZM112.999 45.112H115.927V46H111.907V37.636H112.999V45.112ZM127.635 37.636V38.524H125.355V46H124.263V38.524H121.971V37.636H127.635ZM140.823 37.636V46H139.731V42.208H135.471V46H134.379V37.636H135.471V41.308H139.731V37.636H140.823Z" fill="#1A1626"/>
<path d="M4.5 9C6.98528 9 9 6.98528 9 4.5C9 2.01472 6.98528 0 4.5 0C2.01472 0 0 2.01472 0 4.5C0 6.98528 2.01472 9 4.5 9Z" fill="#7F54EE"/>
<path d="M4.5 13C2.01472 13 0 15.0147 0 17.5V36.5C0 38.9852 2.01472 41 4.5 41C6.98528 41 9 38.9852 9 36.5V17.5C9 15.0147 6.98528 13 4.5 13Z" fill="#7F54EE"/>
<path d="M26 17.5C26 15.0147 28.0147 13 30.5 13C32.9853 13 35 15.0147 35 17.5V36.5C35 38.9852 32.9853 41 30.5 41C28.0147 41 26 38.9852 26 36.5V34.0975C28.4283 33.2706 30.175 30.9705 30.175 28.2625C30.175 25.5545 28.4283 23.2544 26 22.4275V17.5Z" fill="#7F54EE"/>
<path d="M22 22.4361V7.5C22 5.01472 19.9853 3.00001 17.5 3.00001C15.0147 3.00001 13 5.01472 13 7.50001V46.5C13 48.9853 15.0147 51 17.5 51C19.9853 51 22 48.9853 22 46.5V34.0889C19.5848 33.2548 17.85 30.9612 17.85 28.2625C17.85 25.5638 19.5848 23.2702 22 22.4361Z" fill="#7F54EE"/>
<path d="M28.05 28.2625C28.05 30.4923 26.2423 32.3 24.0125 32.3C21.7826 32.3 19.975 30.4923 19.975 28.2625C19.975 26.0326 21.7826 24.225 24.0125 24.225C26.2423 24.225 28.05 26.0326 28.05 28.2625Z" fill="#7F54EE"/>
</svg>
