<svg width="75" height="18" viewBox="0 0 75 18" fill="none" xmlns="http://www.w3.org/2000/svg">
<path d="M13.6259 3.832V15H11.3859V7.736L8.39394 15H6.69794L3.68994 7.736V15H1.44994V3.832H3.99394L7.54594 12.136L11.0979 3.832H13.6259ZM18.2406 5.64V8.44H22.0006V10.216H18.2406V13.176H22.4806V15H16.0006V3.816H22.4806V5.64H18.2406ZM34.2282 15H31.9882L26.9162 7.336V15H24.6762V3.816H26.9162L31.9882 11.496V3.816H34.2282V15ZM38.8098 3.832V10.744C38.8098 11.5013 39.0071 12.0827 39.4018 12.488C39.7965 12.8827 40.3511 13.08 41.0658 13.08C41.7911 13.08 42.3511 12.8827 42.7458 12.488C43.1405 12.0827 43.3378 11.5013 43.3378 10.744V3.832H45.5938V10.728C45.5938 11.6773 45.3858 12.4827 44.9698 13.144C44.5645 13.7947 44.0151 14.2853 43.3218 14.616C42.6391 14.9467 41.8765 15.112 41.0338 15.112C40.2018 15.112 39.4445 14.9467 38.7618 14.616C38.0898 14.2853 37.5565 13.7947 37.1618 13.144C36.7671 12.4827 36.5698 11.6773 36.5698 10.728V3.832H38.8098Z" fill="#7F54EE"/>
<rect x="55" width="20" height="4" rx="2" fill="#7F54EE"/>
<rect x="55" y="7" width="20" height="4" rx="2" fill="#7F54EE"/>
<rect x="55" y="14" width="20" height="4" rx="2" fill="#7F54EE"/>
</svg>
